<svg id="Layer_1" data-name="Layer 1" xmlns="http://www.w3.org/2000/svg" viewBox="0 0 422.99 373.34"><path d="M440.53,251.78c-1-.07-1.93-.1-2.89-.1q-163.78,0-327.55,0c-21.51,0-39.19,13-45.57,32.84a48.6,48.6,0,0,0-2.25,15q0,138.81,0,277.6c0,27.27,20.48,47.77,47.79,47.79q163.79.12,327.56,0c22.68,0,40.82-14.37,46.28-36.16.33-1.32.43-2.7.65-4-.28-1.52-.45-3,.67-4.33V292.89c-1.61-5.74-2.75-11.64-5.84-16.88Q466.28,253.74,440.53,251.78ZM76.29,300.86c0-21.19,14-35.17,35.15-35.18q162.32,0,324.64,0c21.2,0,35.13,14,35.17,35.16,0,14.87-.1,29.74.09,44.61.05,3.4-.79,4.29-4.26,4.29q-96.65-.18-193.3-.09-96.43,0-192.88.09c-3.75,0-4.77-.89-4.71-4.68C76.43,330.33,76.26,315.6,76.29,300.86Zm395,275c0,17.07-9.05,29.52-24.6,33.9A37.69,37.69,0,0,1,436.44,611Q273.72,611,111,611c-20.69,0-34.69-14.05-34.7-34.76q-.06-104.49-.1-209c0-3.31,1.06-3.69,3.93-3.69q96.84.12,193.69.06,96.44,0,192.87-.09c3.72,0,4.66.89,4.66,4.65Q471.16,472,471.25,575.9Z" transform="translate(-62.27 -251.67)"/><path d="M484.87,584.32c.1,0,.23,0,.39.22v-4.13C484.57,581.66,484.83,583,484.87,584.32Z" transform="translate(-62.27 -251.67)"/><path d="M484.59,584.74l.28-.09v-.33C484.74,584.33,484.64,584.46,484.59,584.74Z" transform="translate(-62.27 -251.67)"/><path d="M287.34,404.6c-3.25-.73-6.43,1.06-7.83,4.51a18.63,18.63,0,0,0-.85,3.16Q268,462.43,257.42,512.58q-3.2,15.12-6.27,30.25c-.94,4.68,1.24,8.24,5.41,9.13,3.7.79,7-1.76,8.19-6.28.27-1.07.51-2.14.73-3.21l22-104.37c1.83-8.72,3.65-17.46,5.29-25.33C292.81,408.24,290.66,405.35,287.34,404.6Z" transform="translate(-62.27 -251.67)"/><path d="M197.59,475.26c11.72-9.78,23.31-19.72,34.91-29.65,3.95-3.39,4.62-7.6,1.91-10.79s-6.9-3.23-10.94.18q-21.4,18.13-42.71,36.4c-5,4.31-5,8.54,0,12.79q21.33,18.26,42.72,36.4a10.05,10.05,0,0,0,5.47,2.64,7.12,7.12,0,0,0,7-6.66c.2-3.32-1.84-5.29-4.08-7.2-11.43-9.71-22.77-19.51-34.33-29.06C195,478.18,195.19,477.26,197.59,475.26Z" transform="translate(-62.27 -251.67)"/><path d="M366.74,471.33q-12.4-10.57-24.8-21.15c-6.28-5.35-12.55-10.72-18.9-16a6.63,6.63,0,0,0-8.39-.64c-2.74,1.77-3.54,4.43-2.87,7.54.46,2.15,2.06,3.5,3.63,4.84,11.52,9.81,23,19.7,34.61,29.37,2.58,2.14,2.28,3.05-.12,5.05C338.16,490.11,326.57,500,315,510c-3.91,3.36-4.54,7.71-1.79,10.8s6.78,3.24,10.61,0q21.74-18.39,43.37-36.9a8.15,8.15,0,0,0,3.26-6C370.48,475,368.78,473.07,366.74,471.33Z" transform="translate(-62.27 -251.67)"/><path d="M113.66,330a22.12,22.12,0,0,0,.09-44.23,22.12,22.12,0,0,0-.09,44.23Zm-.18-30.21a8.1,8.1,0,1,1-7.81,8.4A8.29,8.29,0,0,1,113.48,299.75Z" transform="translate(-62.27 -251.67)"/><path d="M181.79,330.09a22,22,0,1,0-22.18-21.85A22.07,22.07,0,0,0,181.79,330.09Zm-.25-30a8,8,0,1,1-7.93,8.16A8,8,0,0,1,181.54,300Z" transform="translate(-62.27 -251.67)"/><path d="M249.41,330.25a22,22,0,1,0-21.94-22.07A22,22,0,0,0,249.41,330.25Zm-.09-30a8,8,0,1,1,.16,16,8,8,0,0,1-.16-16Z" transform="translate(-62.27 -251.67)"/></svg>